<svg version="1.1"  xmlns="http://www.w3.org/2000/svg">
  <symbol id="test" width="79" height="53" viewBox="0 0 79 53">
  </symbol>
  <symbol id="icon-arrow"  width="10" height="17" viewBox="0 0 10 17">
    <rect x="9.89941" y="8.48535" width="12" height="2" rx="1" transform="rotate(135 9.89941 8.48535)"/>
    <rect x="8.48535" y="9.89954" width="12" height="2" rx="1" transform="rotate(-135 8.48535 9.89954)"/>
  </symbol>
  <symbol id="icon-done"  width="100" height="100" viewBox="0 0 100 100">
  <circle opacity="0.3" cx="50" cy="50" r="49" stroke="#CACACA" stroke-width="2"/>
  <path d="M45.4537 61C44.8134 61 44.2051 60.7433 43.7569 60.294L34.6963 51.2128C33.7679 50.2822 33.7679 48.7419 34.6963 47.8113C35.6248 46.8807 37.1616 46.8807 38.09 47.8113L45.4537 55.1918L61.91 38.6979C62.8384 37.7674 64.3752 37.7674 65.3037 38.6979C66.2321 39.6285 66.2321 41.1688 65.3037 42.0994L47.1506 60.294C46.7024 60.7433 46.094 61 45.4537 61Z" fill="#F99D15"/>
  </symbol>
  <symbol id="icon-map" width="19" height="22" viewBox="0 0 19 22">
      <path d="M9.37 12.9199C7.24 12.9199 5.5 11.1899 5.5 9.04994C5.5 6.90994 7.24 5.18994 9.37 5.18994C11.5 5.18994 13.24 6.91994 13.24 9.05994C13.24 11.1999 11.5 12.9199 9.37 12.9199ZM9.37 6.68994C8.07 6.68994 7 7.74994 7 9.05994C7 10.3699 8.06 11.4299 9.37 11.4299C10.68 11.4299 11.74 10.3699 11.74 9.05994C11.74 7.74994 10.67 6.68994 9.37 6.68994Z"/>
    <path d="M9.37664 21.51C7.89664 21.51 6.40664 20.95 5.24664 19.84C2.29664 17 -0.963359 12.47 0.266641 7.08C1.37664 2.19 5.64664 0 9.37664 0C9.37664 0 9.37664 0 9.38664 0C13.1166 0 17.3866 2.19 18.4966 7.09C19.7166 12.48 16.4566 17 13.5066 19.84C12.3466 20.95 10.8566 21.51 9.37664 21.51ZM9.37664 1.5C6.46664 1.5 2.72664 3.05 1.73664 7.41C0.656641 12.12 3.61664 16.18 6.29664 18.75C8.02664 20.42 10.7366 20.42 12.4666 18.75C15.1366 16.18 18.0966 12.12 17.0366 7.41C16.0366 3.05 12.2866 1.5 9.37664 1.5Z"/>
  </symbol>
   <symbol id="icon-plus" width="12" height="12" viewBox="0 0 12 12">
    <rect x="5" y="12" width="12" height="2" rx="1" transform="rotate(-90 5 12)"/>
    <rect y="5" width="12" height="2" rx="1"/>
  </symbol>
  <symbol id="icon-edit" width="17" height="18" viewBox="0 0 17 18">
    <path d="M2.1623 17.5497C1.58582 17.5497 1.04715 17.3512 0.659675 16.9827C0.16825 16.5196 -0.068012 15.8203 0.0170424 15.0642L0.36671 12.0023C0.432864 11.4258 0.782532 10.6603 1.1889 10.2445L8.94775 2.032C10.8851 -0.0187572 12.9075 -0.0754598 14.9583 1.86189C17.009 3.79924 17.0657 5.82164 15.1284 7.8724L7.36952 16.0849C6.9726 16.5101 6.23546 16.9071 5.65898 17.0016L2.61593 17.5213C2.45527 17.5308 2.31351 17.5497 2.1623 17.5497ZM11.9814 1.85244C11.2537 1.85244 10.6205 2.30606 9.97785 2.9865L2.21901 11.2084C2.03 11.4069 1.81263 11.8794 1.77483 12.1535L1.42516 15.2154C1.38736 15.5273 1.46297 15.7825 1.63308 15.9431C1.80318 16.1038 2.05835 16.1605 2.37021 16.1132L5.41327 15.5934C5.68733 15.5462 6.14096 15.3005 6.32997 15.102L14.0888 6.88955C15.2607 5.64208 15.6859 4.48912 13.9754 2.88254C13.2194 2.15485 12.5673 1.85244 11.9814 1.85244Z"/>
    <path d="M13.3168 9.45049C13.2979 9.45049 13.2695 9.45049 13.2506 9.45049C10.3021 9.15753 7.93002 6.91776 7.4764 3.98811C7.41969 3.60064 7.68431 3.24153 8.07178 3.17537C8.45925 3.11867 8.81837 3.38328 8.88452 3.77075C9.24364 6.05777 11.0959 7.81556 13.4019 8.04237C13.7893 8.08017 14.0728 8.42984 14.035 8.81731C13.9878 9.17643 13.6759 9.45049 13.3168 9.45049Z"/>
  </symbol>
  <symbol id="icon-delete" width="15" height="16" viewBox="0 0 15 16">
      <rect x="12.7266" y="15.071" width="18" height="2" rx="1" transform="rotate(-135 12.7266 15.071)"/>
    <rect y="13.6567" width="18" height="2" rx="1" transform="rotate(-45 0 13.6567)"/>
  </symbol>
  <symbol id="icon-cart" width="22" height="22" viewBox="0 0 22 22">
  <path fill-rule="evenodd" clip-rule="evenodd" d="M8.09988 1.2775L5.52973 3.84766H15.9703L13.4001 1.2775C13.1101 0.9875 13.1101 0.5075 13.4001 0.2175C13.6901 -0.0725 14.1701 -0.0725 14.4601 0.2175L18.0901 3.8475L18.0903 3.84766H18.53C19.49 3.84766 21.5 3.84766 21.5 6.59766C21.5 7.63766 21.29 8.32766 20.83 8.77766C20.5608 9.04685 20.2434 9.19009 19.9096 9.26563L18.3002 17.6478C17.9102 19.6778 17.2602 21.4978 13.6402 21.4978H7.61024C4.03024 21.4978 3.23024 19.3678 2.92024 17.5178L1.57489 9.26441C1.2476 9.18735 0.935713 9.04337 0.67 8.77766C0.21 8.32766 0 7.62766 0 6.59766C0 3.84766 2.01 3.84766 2.97 3.84766H3.40973L3.40988 3.8475L7.03988 0.2175C7.32988 -0.0725 7.80988 -0.0725 8.09988 0.2175C8.38988 0.5075 8.38988 0.9875 8.09988 1.2775ZM3.10772 9.34766L4.40024 17.2678C4.69024 19.0378 5.29024 19.9978 7.61024 19.9978H13.6402C16.2102 19.9978 16.5002 19.0978 16.8302 17.3578L18.3682 9.34766H3.10772ZM2.97 7.84766H18.76C19.21 7.85766 19.63 7.85766 19.77 7.71766C19.84 7.64766 19.99 7.40766 19.99 6.59766C19.99 5.46766 19.71 5.34766 18.52 5.34766H2.97C1.78 5.34766 1.5 5.46766 1.5 6.59766C1.5 7.40766 1.66 7.64766 1.72 7.71766C1.86 7.84766 2.29 7.84766 2.73 7.84766H2.97ZM7.75977 16.2976C7.75977 16.7076 8.09977 17.0476 8.50977 17.0476C8.91977 17.0476 9.25977 16.7176 9.25977 16.2976V12.7476C9.25977 12.3376 8.91977 11.9976 8.50977 11.9976C8.09977 11.9976 7.75977 12.3376 7.75977 12.7476V16.2976ZM13.1099 17.0476C12.6999 17.0476 12.3599 16.7076 12.3599 16.2976V12.7476C12.3599 12.3376 12.6999 11.9976 13.1099 11.9976C13.5199 11.9976 13.8599 12.3376 13.8599 12.7476V16.2976C13.8599 16.7176 13.5199 17.0476 13.1099 17.0476Z"/>
  </symbol>
  <symbol id="icon-profile" width="16" height="22" viewBox="0 0 16 22">
<path fill-rule="evenodd" clip-rule="evenodd" d="M7.47996 10.37H7.55996H7.58996C10.38 10.28 12.58 8 12.59 5.19C12.59 2.33 10.26 0 7.39996 0C4.53996 0 2.20996 2.33 2.20996 5.19C2.20996 8 4.39996 10.28 7.29996 10.37C7.35996 10.36 7.42996 10.36 7.47996 10.37ZM3.70996 5.19C3.70996 3.16 5.36996 1.5 7.39996 1.5C9.42996 1.5 11.09 3.16 11.09 5.19C11.08 7.17 9.53996 8.78 7.57996 8.87C7.44996 8.86 7.30996 8.86 7.25996 8.87C5.26996 8.8 3.70996 7.19 3.70996 5.19ZM2.15 19.8C3.64 20.8 5.61 21.3 7.57 21.3C9.53 21.3 11.49 20.8 12.99 19.8C14.38 18.87 15.14 17.6 15.14 16.23C15.14 14.86 14.37 13.6 12.99 12.68C10.01 10.69 5.15 10.69 2.15 12.68C0.76 13.61 0 14.88 0 16.25C0 17.62 0.76 18.88 2.15 19.8ZM1.5 16.26C1.5 15.4 2.02 14.58 2.98 13.94C5.47 12.28 9.67 12.28 12.16 13.94C13.11 14.57 13.64 15.39 13.64 16.24C13.64 17.1 13.12 17.92 12.16 18.56C9.67 20.23 5.47 20.23 2.98 18.56C2.03 17.93 1.5 17.11 1.5 16.26Z"/>
  </symbol>
  <symbol id="icon-pay" width="44" height="44" viewBox="0 0 44 44">
  <rect width="44" height="44" rx="22" fill="#F99D15"/>
<path fill-rule="evenodd" clip-rule="evenodd" d="M19.5339 13.1884L17.143 15.5793H26.8549L24.464 13.1884C24.1943 12.9186 24.1943 12.4721 24.464 12.2023C24.7338 11.9326 25.1803 11.9326 25.4501 12.2023L28.8268 15.5791L28.827 15.5793H29.2372C30.1302 15.5793 32 15.5793 32 18.1374C32 19.1049 31.8047 19.7467 31.3767 20.1653C31.1262 20.4158 30.8308 20.5491 30.5202 20.6193L29.0231 28.4165C28.6603 30.3049 28.0557 31.9979 24.6882 31.9979H19.0789C15.7487 31.9979 15.0045 30.0165 14.7161 28.2956L13.4647 20.618C13.1603 20.5463 12.8703 20.4124 12.6233 20.1653C12.1953 19.7467 12 19.0956 12 18.1374C12 15.5793 13.8698 15.5793 14.7628 15.5793H15.1709L15.1711 15.5791L18.5478 12.2023C18.8176 11.9326 19.2641 11.9326 19.5339 12.2023C19.8036 12.4721 19.8036 12.9186 19.5339 13.1884ZM14.8906 20.6956L16.0929 28.063C16.3627 29.7095 16.9208 30.6026 19.0789 30.6026H24.6882C27.0789 30.6026 27.3487 29.7653 27.6557 28.1467L29.0863 20.6956H14.8906ZM14.7628 19.3002H29.4512C29.8698 19.3095 30.2605 19.3095 30.3907 19.1793C30.4558 19.1142 30.5953 18.8909 30.5953 18.1374C30.5953 17.0862 30.3349 16.9746 29.2279 16.9746H14.7628C13.6558 16.9746 13.3953 17.0862 13.3953 18.1374C13.3953 18.8909 13.5442 19.1142 13.6 19.1793C13.7302 19.3002 14.1302 19.3002 14.5395 19.3002H14.7628ZM19.2188 27.1605C19.2188 27.5419 19.535 27.8582 19.9164 27.8582C20.2978 27.8582 20.6141 27.5512 20.6141 27.1605V23.8582C20.6141 23.4768 20.2978 23.1605 19.9164 23.1605C19.535 23.1605 19.2188 23.4768 19.2188 23.8582V27.1605ZM24.1957 27.8582C23.8143 27.8582 23.498 27.5419 23.498 27.1605V23.8582C23.498 23.4768 23.8143 23.1605 24.1957 23.1605C24.5771 23.1605 24.8934 23.4768 24.8934 23.8582V27.1605C24.8934 27.5512 24.5771 27.8582 24.1957 27.8582Z" fill="white"/>
  </symbol>
   <symbol id="icon-phone" width="22" height="22" viewBox="0 0 22 22">
   <path d="M16.2 21.5C15.07 21.5 13.88 21.23 12.65 20.71C11.45 20.2 10.24 19.5 9.06 18.65C7.89 17.79 6.76 16.83 5.69 15.78C4.63 14.71 3.67 13.58 2.82 12.42C1.96 11.22 1.27 10.02 0.78 8.86C0.26 7.62 0 6.42 0 5.29C0 4.51 0.14 3.77 0.41 3.08C0.69 2.37 1.14 1.71 1.75 1.14C2.52 0.38 3.4 0 4.34 0C4.73 0 5.13 0.09 5.47 0.25C5.86 0.43 6.19 0.7 6.43 1.06L8.75 4.33C8.96 4.62 9.12 4.9 9.23 5.18C9.36 5.48 9.43 5.78 9.43 6.07C9.43 6.45 9.32 6.82 9.11 7.17C8.96 7.44 8.73 7.73 8.44 8.02L7.76 8.73C7.77 8.76 7.78 8.78 7.79 8.8C7.91 9.01 8.15 9.37 8.61 9.91C9.1 10.47 9.56 10.98 10.02 11.45C10.61 12.03 11.1 12.49 11.56 12.87C12.13 13.35 12.5 13.59 12.72 13.7L12.7 13.75L13.43 13.03C13.74 12.72 14.04 12.49 14.33 12.34C14.88 12 15.58 11.94 16.28 12.23C16.54 12.34 16.82 12.49 17.12 12.7L20.44 15.06C20.81 15.31 21.08 15.63 21.24 16.01C21.39 16.39 21.46 16.74 21.46 17.09C21.46 17.57 21.35 18.05 21.14 18.5C20.93 18.95 20.67 19.34 20.34 19.7C19.77 20.33 19.15 20.78 18.43 21.07C17.74 21.35 16.99 21.5 16.2 21.5ZM4.34 1.5C3.79 1.5 3.28 1.74 2.79 2.22C2.33 2.65 2.01 3.12 1.81 3.63C1.6 4.15 1.5 4.7 1.5 5.29C1.5 6.22 1.72 7.23 2.16 8.27C2.61 9.33 3.24 10.43 4.04 11.53C4.84 12.63 5.75 13.7 6.75 14.71C7.75 15.7 8.83 16.62 9.94 17.43C11.02 18.22 12.13 18.86 13.23 19.32C14.94 20.05 16.54 20.22 17.86 19.67C18.37 19.46 18.82 19.14 19.23 18.68C19.46 18.43 19.64 18.16 19.79 17.84C19.91 17.59 19.97 17.33 19.97 17.07C19.97 16.91 19.94 16.75 19.86 16.57C19.83 16.51 19.77 16.4 19.58 16.27L16.26 13.91C16.06 13.77 15.88 13.67 15.71 13.6C15.49 13.51 15.4 13.42 15.06 13.63C14.86 13.73 14.68 13.88 14.48 14.08L13.72 14.83C13.33 15.21 12.73 15.3 12.27 15.13L12 15.01C11.59 14.79 11.11 14.45 10.58 14C10.1 13.59 9.58 13.11 8.95 12.49C8.46 11.99 7.97 11.46 7.46 10.87C6.99 10.32 6.65 9.85 6.44 9.46L6.32 9.16C6.26 8.93 6.24 8.8 6.24 8.66C6.24 8.3 6.37 7.98 6.62 7.73L7.37 6.95C7.57 6.75 7.72 6.56 7.82 6.39C7.9 6.26 7.93 6.15 7.93 6.05C7.93 5.97 7.9 5.85 7.85 5.73C7.78 5.57 7.67 5.39 7.53 5.2L5.21 1.92C5.11 1.78 4.99 1.68 4.84 1.61C4.68 1.54 4.51 1.5 4.34 1.5ZM12.7 13.76L12.54 14.44L12.81 13.74C12.76 13.73 12.72 13.74 12.7 13.76Z"/>
  </symbol>
</svg>
