<svg width="17" height="18" viewBox="0 0 17 18" fill="none" xmlns="http://www.w3.org/2000/svg">
<path d="M2.1623 17.5497C1.58582 17.5497 1.04715 17.3512 0.659675 16.9827C0.16825 16.5196 -0.068012 15.8203 0.0170424 15.0642L0.36671 12.0023C0.432864 11.4258 0.782532 10.6603 1.1889 10.2445L8.94775 2.032C10.8851 -0.0187572 12.9075 -0.0754598 14.9583 1.86189C17.009 3.79924 17.0657 5.82164 15.1284 7.8724L7.36952 16.0849C6.9726 16.5101 6.23546 16.9071 5.65898 17.0016L2.61593 17.5213C2.45527 17.5308 2.31351 17.5497 2.1623 17.5497ZM11.9814 1.85244C11.2537 1.85244 10.6205 2.30606 9.97785 2.9865L2.21901 11.2084C2.03 11.4069 1.81263 11.8794 1.77483 12.1535L1.42516 15.2154C1.38736 15.5273 1.46297 15.7825 1.63308 15.9431C1.80318 16.1038 2.05835 16.1605 2.37021 16.1132L5.41327 15.5934C5.68733 15.5462 6.14096 15.3005 6.32997 15.102L14.0888 6.88955C15.2607 5.64208 15.6859 4.48912 13.9754 2.88254C13.2194 2.15485 12.5673 1.85244 11.9814 1.85244Z" fill="#848484"/>
<path d="M13.3168 9.45049C13.2979 9.45049 13.2695 9.45049 13.2506 9.45049C10.3021 9.15753 7.93002 6.91776 7.4764 3.98811C7.41969 3.60064 7.68431 3.24153 8.07178 3.17537C8.45925 3.11867 8.81837 3.38328 8.88452 3.77075C9.24364 6.05777 11.0959 7.81556 13.4019 8.04237C13.7893 8.08017 14.0728 8.42984 14.035 8.81731C13.9878 9.17643 13.6759 9.45049 13.3168 9.45049Z" fill="#848484"/>
</svg>
