<svg width="16" height="22" viewBox="0 0 16 22" fill="none" xmlns="http://www.w3.org/2000/svg">
<path fill-rule="evenodd" clip-rule="evenodd" d="M7.47996 10.37H7.55996H7.58996C10.38 10.28 12.58 8 12.59 5.19C12.59 2.33 10.26 0 7.39996 0C4.53996 0 2.20996 2.33 2.20996 5.19C2.20996 8 4.39996 10.28 7.29996 10.37C7.35996 10.36 7.42996 10.36 7.47996 10.37ZM3.70996 5.19C3.70996 3.16 5.36996 1.5 7.39996 1.5C9.42996 1.5 11.09 3.16 11.09 5.19C11.08 7.17 9.53996 8.78 7.57996 8.87C7.44996 8.86 7.30996 8.86 7.25996 8.87C5.26996 8.8 3.70996 7.19 3.70996 5.19ZM2.15 19.8C3.64 20.8 5.61 21.3 7.57 21.3C9.53 21.3 11.49 20.8 12.99 19.8C14.38 18.87 15.14 17.6 15.14 16.23C15.14 14.86 14.37 13.6 12.99 12.68C10.01 10.69 5.15 10.69 2.15 12.68C0.76 13.61 0 14.88 0 16.25C0 17.62 0.76 18.88 2.15 19.8ZM1.5 16.26C1.5 15.4 2.02 14.58 2.98 13.94C5.47 12.28 9.67 12.28 12.16 13.94C13.11 14.57 13.64 15.39 13.64 16.24C13.64 17.1 13.12 17.92 12.16 18.56C9.67 20.23 5.47 20.23 2.98 18.56C2.03 17.93 1.5 17.11 1.5 16.26Z" fill="white"/>
</svg>
