<svg width="50" height="50" viewBox="0 0 50 50" fill="none" xmlns="http://www.w3.org/2000/svg">
<rect x="0.5" y="0.5" width="49" height="49" rx="24.5" stroke="#ECECEC"/>
<path fill-rule="evenodd" clip-rule="evenodd" d="M22.0999 15.2775L19.5297 17.8477H29.9703L27.4001 15.2775C27.1101 14.9875 27.1101 14.5075 27.4001 14.2175C27.6901 13.9275 28.1701 13.9275 28.4601 14.2175L32.0901 17.8475L32.0903 17.8477H32.53C33.49 17.8477 35.5 17.8477 35.5 20.5977C35.5 21.6377 35.29 22.3277 34.83 22.7777C34.5609 23.0467 34.2437 23.1899 33.9101 23.2655L32.3007 31.6478C31.9107 33.6778 31.2607 35.4978 27.6407 35.4978H21.6107C18.0307 35.4978 17.2307 33.3678 16.9207 31.5178L15.5754 23.2645C15.2479 23.1875 14.9359 23.0435 14.67 22.7777C14.21 22.3277 14 21.6277 14 20.5977C14 17.8477 16.01 17.8477 16.97 17.8477H17.4097L17.4099 17.8475L21.0399 14.2175C21.3299 13.9275 21.8099 13.9275 22.0999 14.2175C22.3899 14.5075 22.3899 14.9875 22.0999 15.2775ZM17.1082 23.3477L18.4007 31.2678C18.6907 33.0378 19.2907 33.9978 21.6107 33.9978H27.6407C30.2107 33.9978 30.5007 33.0978 30.8307 31.3578L32.3687 23.3477H17.1082ZM16.97 21.8477H32.76C33.21 21.8577 33.63 21.8577 33.77 21.7177C33.84 21.6477 33.99 21.4077 33.99 20.5977C33.99 19.4677 33.71 19.3477 32.52 19.3477H16.97C15.78 19.3477 15.5 19.4677 15.5 20.5977C15.5 21.4077 15.66 21.6477 15.72 21.7177C15.86 21.8477 16.29 21.8477 16.73 21.8477H16.97ZM21.7598 30.2976C21.7598 30.7076 22.0998 31.0476 22.5098 31.0476C22.9198 31.0476 23.2598 30.7176 23.2598 30.2976V26.7476C23.2598 26.3376 22.9198 25.9976 22.5098 25.9976C22.0998 25.9976 21.7598 26.3376 21.7598 26.7476V30.2976ZM27.1094 31.0476C26.6994 31.0476 26.3594 30.7076 26.3594 30.2976V26.7476C26.3594 26.3376 26.6994 25.9976 27.1094 25.9976C27.5194 25.9976 27.8594 26.3376 27.8594 26.7476V30.2976C27.8594 30.7176 27.5194 31.0476 27.1094 31.0476Z" fill="#1C1C1C"/>
</svg>
