<svg width="44" height="44" viewBox="0 0 44 44" fill="none" xmlns="http://www.w3.org/2000/svg">
<rect width="44" height="44" rx="22" fill="#F99D15"/>
<path fill-rule="evenodd" clip-rule="evenodd" d="M19.5339 13.1884L17.143 15.5793H26.8549L24.464 13.1884C24.1943 12.9186 24.1943 12.4721 24.464 12.2023C24.7338 11.9326 25.1803 11.9326 25.4501 12.2023L28.8268 15.5791L28.827 15.5793H29.2372C30.1302 15.5793 32 15.5793 32 18.1374C32 19.1049 31.8047 19.7467 31.3767 20.1653C31.1262 20.4158 30.8308 20.5491 30.5202 20.6193L29.0231 28.4165C28.6603 30.3049 28.0557 31.9979 24.6882 31.9979H19.0789C15.7487 31.9979 15.0045 30.0165 14.7161 28.2956L13.4647 20.618C13.1603 20.5463 12.8703 20.4124 12.6233 20.1653C12.1953 19.7467 12 19.0956 12 18.1374C12 15.5793 13.8698 15.5793 14.7628 15.5793H15.1709L15.1711 15.5791L18.5478 12.2023C18.8176 11.9326 19.2641 11.9326 19.5339 12.2023C19.8036 12.4721 19.8036 12.9186 19.5339 13.1884ZM14.8906 20.6956L16.0929 28.063C16.3627 29.7095 16.9208 30.6026 19.0789 30.6026H24.6882C27.0789 30.6026 27.3487 29.7653 27.6557 28.1467L29.0863 20.6956H14.8906ZM14.7628 19.3002H29.4512C29.8698 19.3095 30.2605 19.3095 30.3907 19.1793C30.4558 19.1142 30.5953 18.8909 30.5953 18.1374C30.5953 17.0862 30.3349 16.9746 29.2279 16.9746H14.7628C13.6558 16.9746 13.3953 17.0862 13.3953 18.1374C13.3953 18.8909 13.5442 19.1142 13.6 19.1793C13.7302 19.3002 14.1302 19.3002 14.5395 19.3002H14.7628ZM19.2188 27.1605C19.2188 27.5419 19.535 27.8582 19.9164 27.8582C20.2978 27.8582 20.6141 27.5512 20.6141 27.1605V23.8582C20.6141 23.4768 20.2978 23.1605 19.9164 23.1605C19.535 23.1605 19.2188 23.4768 19.2188 23.8582V27.1605ZM24.1957 27.8582C23.8143 27.8582 23.498 27.5419 23.498 27.1605V23.8582C23.498 23.4768 23.8143 23.1605 24.1957 23.1605C24.5771 23.1605 24.8934 23.4768 24.8934 23.8582V27.1605C24.8934 27.5512 24.5771 27.8582 24.1957 27.8582Z" fill="white"/>
</svg>
