<svg width="22" height="22" viewBox="0 0 22 22" fill="none" xmlns="http://www.w3.org/2000/svg">
<path fill-rule="evenodd" clip-rule="evenodd" d="M8.09988 1.2775L5.52973 3.84766H15.9703L13.4001 1.2775C13.1101 0.9875 13.1101 0.5075 13.4001 0.2175C13.6901 -0.0725 14.1701 -0.0725 14.4601 0.2175L18.0901 3.8475L18.0903 3.84766H18.53C19.49 3.84766 21.5 3.84766 21.5 6.59766C21.5 7.63766 21.29 8.32766 20.83 8.77766C20.5608 9.04685 20.2434 9.19009 19.9096 9.26563L18.3002 17.6478C17.9102 19.6778 17.2602 21.4978 13.6402 21.4978H7.61024C4.03024 21.4978 3.23024 19.3678 2.92024 17.5178L1.57489 9.26441C1.2476 9.18735 0.935713 9.04337 0.67 8.77766C0.21 8.32766 0 7.62766 0 6.59766C0 3.84766 2.01 3.84766 2.97 3.84766H3.40973L3.40988 3.8475L7.03988 0.2175C7.32988 -0.0725 7.80988 -0.0725 8.09988 0.2175C8.38988 0.5075 8.38988 0.9875 8.09988 1.2775ZM3.10772 9.34766L4.40024 17.2678C4.69024 19.0378 5.29024 19.9978 7.61024 19.9978H13.6402C16.2102 19.9978 16.5002 19.0978 16.8302 17.3578L18.3682 9.34766H3.10772ZM2.97 7.84766H18.76C19.21 7.85766 19.63 7.85766 19.77 7.71766C19.84 7.64766 19.99 7.40766 19.99 6.59766C19.99 5.46766 19.71 5.34766 18.52 5.34766H2.97C1.78 5.34766 1.5 5.46766 1.5 6.59766C1.5 7.40766 1.66 7.64766 1.72 7.71766C1.86 7.84766 2.29 7.84766 2.73 7.84766H2.97ZM7.75977 16.2976C7.75977 16.7076 8.09977 17.0476 8.50977 17.0476C8.91977 17.0476 9.25977 16.7176 9.25977 16.2976V12.7476C9.25977 12.3376 8.91977 11.9976 8.50977 11.9976C8.09977 11.9976 7.75977 12.3376 7.75977 12.7476V16.2976ZM13.1099 17.0476C12.6999 17.0476 12.3599 16.7076 12.3599 16.2976V12.7476C12.3599 12.3376 12.6999 11.9976 13.1099 11.9976C13.5199 11.9976 13.8599 12.3376 13.8599 12.7476V16.2976C13.8599 16.7176 13.5199 17.0476 13.1099 17.0476Z" fill="white"/>
</svg>
