<svg width="19" height="22" viewBox="0 0 19 22" fill="none" xmlns="http://www.w3.org/2000/svg">
<path d="M9.37 12.9199C7.24 12.9199 5.5 11.1899 5.5 9.04994C5.5 6.90994 7.24 5.18994 9.37 5.18994C11.5 5.18994 13.24 6.91994 13.24 9.05994C13.24 11.1999 11.5 12.9199 9.37 12.9199ZM9.37 6.68994C8.07 6.68994 7 7.74994 7 9.05994C7 10.3699 8.06 11.4299 9.37 11.4299C10.68 11.4299 11.74 10.3699 11.74 9.05994C11.74 7.74994 10.67 6.68994 9.37 6.68994Z" fill="#F99D15"/>
<path d="M9.37664 21.51C7.89664 21.51 6.40664 20.95 5.24664 19.84C2.29664 17 -0.963359 12.47 0.266641 7.08C1.37664 2.19 5.64664 0 9.37664 0C9.37664 0 9.37664 0 9.38664 0C13.1166 0 17.3866 2.19 18.4966 7.09C19.7166 12.48 16.4566 17 13.5066 19.84C12.3466 20.95 10.8566 21.51 9.37664 21.51ZM9.37664 1.5C6.46664 1.5 2.72664 3.05 1.73664 7.41C0.656641 12.12 3.61664 16.18 6.29664 18.75C8.02664 20.42 10.7366 20.42 12.4666 18.75C15.1366 16.18 18.0966 12.12 17.0366 7.41C16.0366 3.05 12.2866 1.5 9.37664 1.5Z" fill="#F99D15"/>
</svg>
